<?xml version="1.0" standalone="no"?>
<!DOCTYPE svg PUBLIC "-//W3C//DTD SVG 20010904//EN"
 "http://www.w3.org/TR/2001/REC-SVG-20010904/DTD/svg10.dtd">
<svg version="1.0" xmlns="http://www.w3.org/2000/svg"
 width="152.000000pt" height="152.000000pt" viewBox="0 0 152.000000 152.000000"
 preserveAspectRatio="xMidYMid meet">
<metadata>
Created by potrace 1.15, written by Peter Selinger 2001-2017
</metadata>
<g transform="translate(0.000000,152.000000) scale(0.100000,-0.100000)"
fill="#000000" stroke="none">
<path d="M919 1505 c-31 -17 -59 -56 -59 -83 0 -10 -12 -29 -26 -43 -33 -30
-69 -102 -78 -154 -11 -56 -45 -113 -82 -136 -18 -11 -77 -36 -131 -55 -54
-19 -109 -42 -123 -51 -52 -33 -129 -120 -161 -183 -34 -65 -34 -66 -34 -205
0 -133 1 -143 28 -197 37 -78 99 -138 177 -175 75 -35 122 -42 359 -48 149 -4
206 -12 253 -36 10 -5 22 -9 27 -9 17 0 127 -68 161 -100 33 -31 50 -38 50
-20 0 18 -29 80 -44 96 -9 8 -21 23 -28 32 -26 36 -98 85 -150 103 -32 10 -44
18 -30 18 44 2 56 97 14 108 -39 10 -54 133 -26 213 14 42 62 138 74 150 35
34 49 134 25 184 -10 20 -21 36 -25 36 -10 0 -30 47 -30 70 0 23 64 90 87 90
8 0 24 10 35 22 20 24 18 24 86 -20 19 -12 22 -12 22 0 0 8 -5 19 -12 26 -9 9
-9 12 4 12 20 0 18 37 -2 50 -8 5 -26 10 -40 10 -21 0 -29 10 -55 71 -34 82
-48 100 -90 117 -40 16 -59 46 -45 72 22 41 14 50 -47 50 -32 -1 -70 -7 -84
-15z m114 -110 c12 -8 28 -15 36 -15 14 0 51 -37 51 -50 0 -4 -9 -10 -20 -13
-32 -8 -37 -37 -11 -59 29 -22 41 -23 41 -1 0 15 2 14 15 -3 18 -24 20 -61 3
-47 -20 15 -91 33 -129 33 -39 0 -119 -28 -119 -43 0 -5 9 -6 23 -2 12 5 53
10 91 12 83 6 83 -11 0 -22 -32 -4 -64 -11 -73 -15 -9 -5 -31 -15 -48 -22 -18
-7 -33 -18 -33 -25 0 -9 12 -7 43 6 44 19 117 36 117 27 0 -3 -15 -12 -34 -21
-45 -22 -83 -64 -91 -100 l-6 -30 18 25 c45 63 101 96 201 120 43 11 40 5 -10
-21 -24 -12 -48 -29 -55 -38 -18 -23 -16 -116 2 -131 19 -16 45 -68 45 -91 0
-19 -28 -73 -61 -121 -11 -14 -19 -29 -19 -32 0 -4 -8 -19 -17 -33 -42 -63
-54 -151 -32 -222 19 -61 48 -121 59 -121 17 0 11 -39 -10 -60 -23 -23 -57
-26 -79 -6 -18 16 -144 36 -229 36 -31 0 -91 7 -132 16 -127 26 -130 27 -130
16 0 -21 76 -57 145 -69 l70 -12 -64 5 c-174 15 -282 131 -290 313 -5 127 26
203 124 306 25 27 117 77 190 105 11 5 35 13 53 20 17 7 45 24 62 39 31 28 80
117 80 147 1 52 66 201 103 238 12 12 19 17 15 12 -12 -15 -10 -96 2 -96 6 0
10 7 10 15 0 16 22 56 49 89 15 17 16 17 19 -13 2 -18 12 -37 25 -46z"/>
<path d="M854 659 c-12 -20 -34 -114 -34 -148 0 -77 45 -172 100 -211 39 -28
49 -19 25 23 -57 98 -80 188 -72 283 4 59 -2 79 -19 53z"/>
<path d="M493 599 c-20 -6 -33 -16 -33 -26 0 -13 7 -14 37 -10 62 10 167 -33
212 -87 33 -39 42 7 12 59 -29 51 -76 75 -140 74 -31 0 -71 -5 -88 -10z"/>
</g>
</svg>
